<?xml version="1.0" encoding="utf-8"?>
<!-- Generator: Adobe Illustrator 26.0.1, SVG Export Plug-In . SVG Version: 6.00 Build 0)  -->
<svg version="1.1" id="Layer_1" xmlns="http://www.w3.org/2000/svg" xmlns:xlink="http://www.w3.org/1999/xlink" x="0px" y="0px"
	 viewBox="0 0 120 120" style="enable-background:new 0 0 120 120;" xml:space="preserve">
<style type="text/css">
	.st0{fill:#FFFFFF;}
	.st1{fill:#FF4B1A;}
	.st2{filter:url(#Adobe_OpacityMaskFilter);}
	.st3{filter:url(#Adobe_OpacityMaskFilter_00000109013057599066303230000000949741585956575653_);}
	.st4{mask:url(#SVGID_1_);}
	.st5{fill:#1522DA;}
</style>
<path class="st0" d="M60,0C26.9,0,0,26.9,0,60s26.9,60,60,60s60-26.9,60-60S93.1,0,60,0z"/>
<g>
	<g>
		<path class="st1" d="M80.1,95h-9.8l-0.1-0.8c-0.8-5.5,0.5-10.3,1.9-15.4c0.2-0.8,0.5-1.7,0.7-2.6c0.9-3.3,1.1-6.4,0.7-9.9
			c-0.4,3.5-1.4,6.6-2.9,9.7c-0.7,1.4-1.4,2.8-1.9,3.8l-0.1,0.1c-2.2,4.2-4.2,8.1-4.9,12.7l-0.1,0.8h-8.3l-0.2-0.6
			c-1.5-4.5-1.3-8.8-1.2-13.3l0-0.7c0-1,0.1-2,0.1-3.1c0-3.1-0.5-6-1.7-9.3c0.4,3.6,0.1,6.9-0.8,10.3c-0.2,0.9-0.5,1.8-0.7,2.6
			c-1.3,4.9-2.6,9.5-1.8,14.6l0.2,1h-9.8l-0.1-0.8c-0.8-5.3,0.4-10,1.8-14.9l0.1-0.3c0.4-1.5,0.8-3.1,1.2-4.7
			c1.2-5.5,0-10.6-1.3-15.4c-1.4-4.9-2.7-10.3-1.4-16.2c0.4-1.7,0.8-3.4,1.3-5.1c1.3-4.7,2.5-9.2,1.7-14.2l-0.2-1h9.3l0.2,0.6
			c1.6,4,2.1,8.1,1.9,13.5l-0.1,1.4c-0.2,3.2-0.3,6.8,0.5,10.1c0.9,3.8,2.7,7.3,4.4,10.6c1.7,3.4,3.5,6.8,4.5,10.6
			c0.6-2.7,0.8-5.6,0.7-9.2l-0.1-1.3c-0.2-3.5-0.3-7.1,0.5-10.7c0.9-4,2.8-7.5,4.6-11l0.5,0.1l-0.4-0.2c2.2-4.2,4.4-8.6,4.9-13.6
			l0.1-0.8h9.2l0.1,0.8c0.8,5.3-0.4,10-1.8,14.9c-0.5,1.7-0.9,3.3-1.2,5c-1.2,5.6,0,10.6,1.3,15.4c1.4,5,2.7,10.3,1.4,16.2
			c-0.4,1.7-0.8,3.4-1.3,5.1C80.4,84.5,79.2,89,80,94L80.1,95z M71.2,94h7.7c-0.7-5.1,0.5-9.7,1.8-14.5c0.4-1.6,0.9-3.3,1.3-5
			c1.2-5.7,0-10.9-1.4-15.7c-1.4-4.9-2.6-10.1-1.4-15.9c0.4-1.7,0.8-3.3,1.3-5c1.3-4.8,2.5-9.3,1.8-14.4h-7.4
			c-0.5,5.1-2.8,9.6-5,13.9l-0.1,0.1c-1.8,3.4-3.6,6.9-4.5,10.8c-0.8,3.4-0.7,6.9-0.5,10.3l0.1,1.4c0.2,4.6-0.2,8.2-1.3,11.5l-0.6,2
			l-0.3-2c-0.8-4.5-2.8-8.4-4.8-12.3c-1.8-3.5-3.6-7-4.5-10.9c-0.8-3.5-0.6-7.2-0.5-10.4l0.1-1.4c0.2-5.2-0.3-9.1-1.8-13h-7.4
			c0.7,5.1-0.5,9.7-1.8,14.5c-0.5,1.7-0.9,3.3-1.3,5c-1.2,5.7,0,10.9,1.4,15.7c1.4,4.9,2.6,10.1,1.4,15.8c-0.4,1.6-0.8,3.2-1.2,4.8
			L42,79.6c-1.3,4.8-2.5,9.3-1.8,14.4H48c-0.8-5.3,0.5-10,1.8-14.9c0.2-0.8,0.5-1.7,0.7-2.6c1.2-4.5,1.2-8.9,0.1-14l-0.9-4.3l1.9,4
			c2.4,5.1,3.4,9.2,3.4,13.5c0,1,0,2.1-0.1,3.1l0,0.6c-0.1,4.5-0.2,8.7,1.1,13h6.7c0.7-4.7,2.8-8.7,5-12.9l0.1-0.1
			c0.5-1,1.3-2.4,1.9-3.8c2-4.2,3-8.3,3-13.5l0.1-4.1l0.9,4c1.2,5.3,1.2,9.7,0,14.4c-0.2,0.9-0.5,1.8-0.7,2.6
			C71.7,84.1,70.5,88.8,71.2,94z"/>
	</g>
	<defs>
		<filter id="Adobe_OpacityMaskFilter" filterUnits="userSpaceOnUse" x="36.5" y="26" width="43.4" height="71.5">
			<feFlood  style="flood-color:white;flood-opacity:1" result="back"/>
			<feBlend  in="SourceGraphic" in2="back" mode="normal"/>
		</filter>
	</defs>
	<mask maskUnits="userSpaceOnUse" x="36.5" y="26" width="43.4" height="71.5" id="SVGID_1_">
		<g class="st2">
			<defs>
				
					<filter id="Adobe_OpacityMaskFilter_00000154402707989749139420000000837667292264293510_" filterUnits="userSpaceOnUse" x="55.2" y="61.9" width="6.9" height="34">
					<feFlood  style="flood-color:white;flood-opacity:1" result="back"/>
					<feBlend  in="SourceGraphic" in2="back" mode="normal"/>
				</filter>
			</defs>
			<mask maskUnits="userSpaceOnUse" x="55.2" y="61.9" width="6.9" height="34" id="SVGID_1_">
				<g style="filter:url(#Adobe_OpacityMaskFilter_00000154402707989749139420000000837667292264293510_);">
				</g>
			</mask>
			<path class="st4" d="M60.2,96c1.8-12.3-0.1-21.6-0.1-21.6c-0.8-4.5-2.8-8.5-4.8-12.4h1.1c2,3.9,4.1,7.9,4.8,12.4
				c0,0,1.9,9.3,0.1,21.6H60.2z"/>
		</g>
	</mask>
	<path class="st5" d="M60.2,96h-7.5l-0.1-0.3c-1.5-4.5-1.3-8.7-1.2-13.2c0-1.2,0.1-2.5,0.1-3.7c0-4.7-1.2-8.8-3.4-13.3
		c0.9,4.2,1.3,8.9-0.1,14.2c-0.2,0.9-0.5,1.8-0.7,2.6c-1.3,5-2.6,9.6-1.8,14.8l0.1,0.5h-8.7l0-0.3c-0.8-5.2,0.5-9.8,1.8-14.7
		c0.4-1.6,0.9-3.3,1.2-5c1.2-5.7,0-10.8-1.4-15.6C37,57,35.8,51.7,37,45.9c0.4-1.7,0.8-3.4,1.3-5c1.3-4.8,2.5-9.3,1.7-14.4L40,26
		h8.3l0.1,0.2c1.5,4,2.1,7.9,1.9,13.3c0,0.5,0,0.9-0.1,1.4c-0.2,3.4-0.3,6.9,0.5,10.3c0.9,3.8,2.7,7.4,4.5,10.8
		c2,3.9,4.1,7.9,4.8,12.4c1.1-3.3,1.4-6.8,1.3-11.3c0-0.5,0-0.9-0.1-1.4c-0.2-3.5-0.3-7,0.5-10.5c0.9-3.9,2.8-7.5,4.6-10.9
		c2.2-4.3,4.5-8.8,5-13.9l0-0.4h8.3l0,0.3c0.8,5.2-0.4,9.8-1.8,14.7c-0.4,1.6-0.9,3.3-1.2,5c-1.2,5.7,0,10.8,1.4,15.6
		c1.4,4.9,2.6,10.2,1.4,16c-0.4,1.7-0.8,3.4-1.3,5c-1.3,4.8-2.5,9.3-1.7,14.4l0.1,0.5h-8.7l0-0.3C66.9,91.8,68.2,87,69.6,82
		c0.2-0.8,0.5-1.7,0.7-2.6c1.3-5.1,1-9.5,0-14.2c-0.1,5.2-1.1,9.5-3.1,13.7c-0.6,1.3-1.3,2.6-1.9,3.8c-2.2,4.2-4.3,8.2-5,12.9
		L60.2,96"/>
</g>
</svg>
